<mxfile host="app.diagrams.net" modified="2020-12-19T07:23:47.199Z" agent="5.0 (Macintosh; Intel Mac OS X 10_15_6) AppleWebKit/537.36 (KHTML, like Gecko) Chrome/87.0.4280.67 Safari/537.36" etag="A4JaIsKSfyCTRA_s03zv" version="14.1.1" type="github">
  <diagram id="6TxaEl9o-I1fTO_qHcDN" name="Page-1">
    <mxGraphModel dx="1613" dy="426" grid="1" gridSize="10" guides="1" tooltips="1" connect="1" arrows="1" fold="1" page="1" pageScale="1" pageWidth="827" pageHeight="1169" math="0" shadow="0">
      <root>
        <mxCell id="0" />
        <mxCell id="1" parent="0" />
        <mxCell id="L6nYo7WYAfvZyUBZVPKv-1" value="" style="shape=table;html=1;whiteSpace=wrap;startSize=0;container=1;collapsible=0;childLayout=tableLayout;fillColor=#FA7F72;comic=1;fontFamily=Architects Daughter;fontSource=https%3A%2F%2Ffonts.googleapis.com%2Fcss%3Ffamily%3DArchitects%2BDaughter;" vertex="1" parent="1">
          <mxGeometry x="-200" y="200" width="800" height="40" as="geometry" />
        </mxCell>
        <mxCell id="L6nYo7WYAfvZyUBZVPKv-2" value="" style="shape=partialRectangle;html=1;whiteSpace=wrap;collapsible=0;dropTarget=0;pointerEvents=0;fillColor=none;top=0;left=0;bottom=0;right=0;points=[[0,0.5],[1,0.5]];portConstraint=eastwest;" vertex="1" parent="L6nYo7WYAfvZyUBZVPKv-1">
          <mxGeometry width="800" height="40" as="geometry" />
        </mxCell>
        <mxCell id="L6nYo7WYAfvZyUBZVPKv-3" value="" style="shape=partialRectangle;html=1;whiteSpace=wrap;connectable=0;overflow=hidden;fillColor=none;top=0;left=0;bottom=0;right=0;" vertex="1" parent="L6nYo7WYAfvZyUBZVPKv-2">
          <mxGeometry width="40" height="40" as="geometry" />
        </mxCell>
        <mxCell id="L6nYo7WYAfvZyUBZVPKv-4" value="" style="shape=partialRectangle;html=1;whiteSpace=wrap;connectable=0;overflow=hidden;fillColor=none;top=0;left=0;bottom=0;right=0;" vertex="1" parent="L6nYo7WYAfvZyUBZVPKv-2">
          <mxGeometry x="40" width="40" height="40" as="geometry" />
        </mxCell>
        <mxCell id="L6nYo7WYAfvZyUBZVPKv-5" value="..." style="shape=partialRectangle;html=1;whiteSpace=wrap;connectable=0;overflow=hidden;fillColor=none;top=0;left=0;bottom=0;right=0;" vertex="1" parent="L6nYo7WYAfvZyUBZVPKv-2">
          <mxGeometry x="80" width="40" height="40" as="geometry" />
        </mxCell>
        <mxCell id="L6nYo7WYAfvZyUBZVPKv-6" value="" style="shape=partialRectangle;html=1;whiteSpace=wrap;connectable=0;overflow=hidden;fillColor=none;top=0;left=0;bottom=0;right=0;" vertex="1" parent="L6nYo7WYAfvZyUBZVPKv-2">
          <mxGeometry x="120" width="40" height="40" as="geometry" />
        </mxCell>
        <mxCell id="L6nYo7WYAfvZyUBZVPKv-7" value="" style="shape=partialRectangle;html=1;whiteSpace=wrap;connectable=0;overflow=hidden;fillColor=none;top=0;left=0;bottom=0;right=0;" vertex="1" parent="L6nYo7WYAfvZyUBZVPKv-2">
          <mxGeometry x="160" width="40" height="40" as="geometry" />
        </mxCell>
        <mxCell id="L6nYo7WYAfvZyUBZVPKv-8" value="" style="shape=partialRectangle;html=1;whiteSpace=wrap;connectable=0;overflow=hidden;fillColor=none;top=0;left=0;bottom=0;right=0;" vertex="1" parent="L6nYo7WYAfvZyUBZVPKv-2">
          <mxGeometry x="200" width="40" height="40" as="geometry" />
        </mxCell>
        <mxCell id="L6nYo7WYAfvZyUBZVPKv-9" value="" style="shape=partialRectangle;html=1;whiteSpace=wrap;connectable=0;overflow=hidden;fillColor=none;top=0;left=0;bottom=0;right=0;" vertex="1" parent="L6nYo7WYAfvZyUBZVPKv-2">
          <mxGeometry x="240" width="40" height="40" as="geometry" />
        </mxCell>
        <mxCell id="L6nYo7WYAfvZyUBZVPKv-10" value="..." style="shape=partialRectangle;html=1;whiteSpace=wrap;connectable=0;overflow=hidden;fillColor=none;top=0;left=0;bottom=0;right=0;" vertex="1" parent="L6nYo7WYAfvZyUBZVPKv-2">
          <mxGeometry x="280" width="40" height="40" as="geometry" />
        </mxCell>
        <mxCell id="L6nYo7WYAfvZyUBZVPKv-11" value="" style="shape=partialRectangle;html=1;whiteSpace=wrap;connectable=0;overflow=hidden;fillColor=none;top=0;left=0;bottom=0;right=0;" vertex="1" parent="L6nYo7WYAfvZyUBZVPKv-2">
          <mxGeometry x="320" width="40" height="40" as="geometry" />
        </mxCell>
        <mxCell id="L6nYo7WYAfvZyUBZVPKv-12" value="" style="shape=partialRectangle;html=1;whiteSpace=wrap;connectable=0;overflow=hidden;fillColor=none;top=0;left=0;bottom=0;right=0;" vertex="1" parent="L6nYo7WYAfvZyUBZVPKv-2">
          <mxGeometry x="360" width="40" height="40" as="geometry" />
        </mxCell>
        <mxCell id="L6nYo7WYAfvZyUBZVPKv-13" value="" style="shape=partialRectangle;html=1;whiteSpace=wrap;connectable=0;overflow=hidden;fillColor=none;top=0;left=0;bottom=0;right=0;" vertex="1" parent="L6nYo7WYAfvZyUBZVPKv-2">
          <mxGeometry x="400" width="40" height="40" as="geometry" />
        </mxCell>
        <mxCell id="L6nYo7WYAfvZyUBZVPKv-14" value="" style="shape=partialRectangle;html=1;whiteSpace=wrap;connectable=0;overflow=hidden;fillColor=none;top=0;left=0;bottom=0;right=0;" vertex="1" parent="L6nYo7WYAfvZyUBZVPKv-2">
          <mxGeometry x="440" width="40" height="40" as="geometry" />
        </mxCell>
        <mxCell id="L6nYo7WYAfvZyUBZVPKv-15" value="" style="shape=partialRectangle;html=1;whiteSpace=wrap;connectable=0;overflow=hidden;fillColor=none;top=0;left=0;bottom=0;right=0;" vertex="1" parent="L6nYo7WYAfvZyUBZVPKv-2">
          <mxGeometry x="480" width="40" height="40" as="geometry" />
        </mxCell>
        <mxCell id="L6nYo7WYAfvZyUBZVPKv-16" value="" style="shape=partialRectangle;html=1;whiteSpace=wrap;connectable=0;overflow=hidden;fillColor=none;top=0;left=0;bottom=0;right=0;" vertex="1" parent="L6nYo7WYAfvZyUBZVPKv-2">
          <mxGeometry x="520" width="40" height="40" as="geometry" />
        </mxCell>
        <mxCell id="L6nYo7WYAfvZyUBZVPKv-17" value="" style="shape=partialRectangle;html=1;whiteSpace=wrap;connectable=0;overflow=hidden;fillColor=none;top=0;left=0;bottom=0;right=0;" vertex="1" parent="L6nYo7WYAfvZyUBZVPKv-2">
          <mxGeometry x="560" width="40" height="40" as="geometry" />
        </mxCell>
        <mxCell id="L6nYo7WYAfvZyUBZVPKv-18" value="" style="shape=partialRectangle;html=1;whiteSpace=wrap;connectable=0;overflow=hidden;fillColor=none;top=0;left=0;bottom=0;right=0;" vertex="1" parent="L6nYo7WYAfvZyUBZVPKv-2">
          <mxGeometry x="600" width="40" height="40" as="geometry" />
        </mxCell>
        <mxCell id="L6nYo7WYAfvZyUBZVPKv-19" value="" style="shape=partialRectangle;html=1;whiteSpace=wrap;connectable=0;overflow=hidden;fillColor=none;top=0;left=0;bottom=0;right=0;" vertex="1" parent="L6nYo7WYAfvZyUBZVPKv-2">
          <mxGeometry x="640" width="40" height="40" as="geometry" />
        </mxCell>
        <mxCell id="L6nYo7WYAfvZyUBZVPKv-20" value="" style="shape=partialRectangle;html=1;whiteSpace=wrap;connectable=0;overflow=hidden;fillColor=none;top=0;left=0;bottom=0;right=0;" vertex="1" parent="L6nYo7WYAfvZyUBZVPKv-2">
          <mxGeometry x="680" width="40" height="40" as="geometry" />
        </mxCell>
        <mxCell id="L6nYo7WYAfvZyUBZVPKv-21" value="" style="shape=partialRectangle;html=1;whiteSpace=wrap;connectable=0;overflow=hidden;fillColor=none;top=0;left=0;bottom=0;right=0;" vertex="1" parent="L6nYo7WYAfvZyUBZVPKv-2">
          <mxGeometry x="720" width="40" height="40" as="geometry" />
        </mxCell>
        <mxCell id="L6nYo7WYAfvZyUBZVPKv-22" value="" style="shape=partialRectangle;html=1;whiteSpace=wrap;connectable=0;overflow=hidden;fillColor=none;top=0;left=0;bottom=0;right=0;" vertex="1" parent="L6nYo7WYAfvZyUBZVPKv-2">
          <mxGeometry x="760" width="40" height="40" as="geometry" />
        </mxCell>
        <mxCell id="L6nYo7WYAfvZyUBZVPKv-23" value="" style="shape=curlyBracket;whiteSpace=wrap;html=1;rounded=1;comic=1;fillColor=#FA7F72;direction=north;" vertex="1" parent="1">
          <mxGeometry x="-200" y="250" width="160" height="20" as="geometry" />
        </mxCell>
        <mxCell id="L6nYo7WYAfvZyUBZVPKv-25" value="mask - 16 bits" style="text;html=1;align=center;verticalAlign=middle;resizable=0;points=[];autosize=1;fontFamily=Architects Daughter;" vertex="1" parent="1">
          <mxGeometry x="-165" y="280" width="90" height="20" as="geometry" />
        </mxCell>
        <mxCell id="L6nYo7WYAfvZyUBZVPKv-26" value="" style="shape=curlyBracket;whiteSpace=wrap;html=1;rounded=1;comic=1;fillColor=#FA7F72;direction=north;" vertex="1" parent="1">
          <mxGeometry x="-40" y="250" width="280" height="20" as="geometry" />
        </mxCell>
        <mxCell id="L6nYo7WYAfvZyUBZVPKv-27" value="buckets - 48 bits" style="text;html=1;align=center;verticalAlign=middle;resizable=0;points=[];autosize=1;fontFamily=Architects Daughter;" vertex="1" parent="1">
          <mxGeometry x="60" y="280" width="110" height="20" as="geometry" />
        </mxCell>
      </root>
    </mxGraphModel>
  </diagram>
</mxfile>
